<svg width="200" height="200" viewBox="0 0 200 200" fill="none" xmlns="http://www.w3.org/2000/svg">
<rect x="25" y="25" width="150" height="150" rx="15" fill="#68286B"/>
<g filter="url(#filter0_i_40_19)">
<path d="M103.636 90H95.1818C94.6818 87.5682 93.8068 85.4318 92.5568 83.5909C91.3295 81.75 89.8295 80.2045 88.0568 78.9545C86.3068 77.6818 84.3636 76.7273 82.2273 76.0909C80.0909 75.4545 77.8636 75.1364 75.5455 75.1364C71.3182 75.1364 67.4886 76.2045 64.0568 78.3409C60.6477 80.4773 57.9318 83.625 55.9091 87.7841C53.9091 91.9432 52.9091 97.0455 52.9091 103.091C52.9091 109.136 53.9091 114.239 55.9091 118.398C57.9318 122.557 60.6477 125.705 64.0568 127.841C67.4886 129.977 71.3182 131.045 75.5455 131.045C77.8636 131.045 80.0909 130.727 82.2273 130.091C84.3636 129.455 86.3068 128.511 88.0568 127.261C89.8295 125.989 91.3295 124.432 92.5568 122.591C93.8068 120.727 94.6818 118.591 95.1818 116.182H103.636C103 119.75 101.841 122.943 100.159 125.761C98.4773 128.58 96.3864 130.977 93.8864 132.955C91.3864 134.909 88.5795 136.398 85.4659 137.42C82.375 138.443 79.0682 138.955 75.5455 138.955C69.5909 138.955 64.2955 137.5 59.6591 134.591C55.0227 131.682 51.375 127.545 48.7159 122.182C46.0568 116.818 44.7273 110.455 44.7273 103.091C44.7273 95.7273 46.0568 89.3636 48.7159 84C51.375 78.6364 55.0227 74.5 59.6591 71.5909C64.2955 68.6818 69.5909 67.2273 75.5455 67.2273C79.0682 67.2273 82.375 67.7386 85.4659 68.7614C88.5795 69.7841 91.3864 71.2841 93.8864 73.2614C96.3864 75.2159 98.4773 77.6023 100.159 80.4205C101.841 83.2159 103 86.4091 103.636 90ZM145.88 85.6364C145.471 82.1818 143.812 79.5 140.903 77.5909C137.994 75.6818 134.426 74.7273 130.198 74.7273C127.107 74.7273 124.403 75.2273 122.085 76.2273C119.789 77.2273 117.994 78.6023 116.698 80.3523C115.426 82.1023 114.789 84.0909 114.789 86.3182C114.789 88.1818 115.232 89.7841 116.119 91.125C117.028 92.4432 118.187 93.5455 119.596 94.4318C121.005 95.2955 122.482 96.0114 124.028 96.5795C125.573 97.125 126.994 97.5682 128.289 97.9091L135.38 99.8182C137.198 100.295 139.221 100.955 141.448 101.795C143.698 102.636 145.846 103.784 147.891 105.239C149.96 106.67 151.664 108.511 153.005 110.761C154.346 113.011 155.016 115.773 155.016 119.045C155.016 122.818 154.028 126.227 152.051 129.273C150.096 132.318 147.232 134.739 143.46 136.534C139.71 138.33 135.153 139.227 129.789 139.227C124.789 139.227 120.46 138.42 116.801 136.807C113.164 135.193 110.301 132.943 108.21 130.057C106.141 127.17 104.971 123.818 104.698 120H113.426C113.653 122.636 114.539 124.818 116.085 126.545C117.653 128.25 119.63 129.523 122.016 130.364C124.426 131.182 127.016 131.591 129.789 131.591C133.016 131.591 135.914 131.068 138.482 130.023C141.051 128.955 143.085 127.477 144.585 125.591C146.085 123.682 146.835 121.455 146.835 118.909C146.835 116.591 146.187 114.705 144.891 113.25C143.596 111.795 141.891 110.614 139.778 109.705C137.664 108.795 135.38 108 132.926 107.318L124.335 104.864C118.88 103.295 114.562 101.057 111.38 98.1477C108.198 95.2386 106.607 91.4318 106.607 86.7273C106.607 82.8182 107.664 79.4091 109.778 76.5C111.914 73.5682 114.778 71.2955 118.369 69.6818C121.982 68.0455 126.016 67.2273 130.471 67.2273C134.971 67.2273 138.971 68.0341 142.471 69.6477C145.971 71.2386 148.744 73.4205 150.789 76.1932C152.857 78.9659 153.948 82.1136 154.062 85.6364H145.88Z" fill="#261427"/>
</g>
<defs>
<filter id="filter0_i_40_19" x="44.7273" y="67.2273" width="110.289" height="72" filterUnits="userSpaceOnUse" color-interpolation-filters="sRGB">
<feFlood flood-opacity="0" result="BackgroundImageFix"/>
<feBlend mode="normal" in="SourceGraphic" in2="BackgroundImageFix" result="shape"/>
<feColorMatrix in="SourceAlpha" type="matrix" values="0 0 0 0 0 0 0 0 0 0 0 0 0 0 0 0 0 0 127 0" result="hardAlpha"/>
<feOffset dy="4"/>
<feComposite in2="hardAlpha" operator="arithmetic" k2="-1" k3="1"/>
<feColorMatrix type="matrix" values="0 0 0 0 0 0 0 0 0 0 0 0 0 0 0 0 0 0 0.25 0"/>
<feBlend mode="normal" in2="shape" result="effect1_innerShadow_40_19"/>
</filter>
</defs>
</svg>
