<svg width="200" height="200" viewBox="0 0 200 200" fill="none" xmlns="http://www.w3.org/2000/svg">
<rect width="200" height="200" rx="50" fill="#282525"/>
<g filter="url(#filter0_d_29_5)">
<path d="M104.79 49.637C106.093 36.0304 118.506 25.7031 130.956 31.3451C140.719 35.7693 149.509 42.2746 156.658 50.5167C169.273 65.0619 175.812 83.9018 174.919 103.135C174.027 122.368 165.772 140.522 151.863 153.836C137.955 167.151 119.458 174.606 100.204 174.658C80.9503 174.711 62.4136 167.356 48.4328 154.118C34.452 140.879 26.098 122.771 25.1007 103.543C24.1035 84.3148 30.5394 65.4396 43.0757 50.8259C50.1795 42.545 58.9337 35.992 68.6724 31.5147C81.0916 25.805 93.5608 36.0645 94.9379 49.6638C95.5405 55.6151 104.22 55.5915 104.79 49.637Z" fill="#532456"/>
</g>
<g filter="url(#filter1_i_29_5)">
<path d="M122.497 98.5H115.892C115.501 96.6001 114.818 94.9311 113.841 93.4929C112.882 92.0547 111.711 90.8473 110.326 89.8707C108.958 88.8764 107.44 88.1307 105.771 87.6335C104.102 87.1364 102.362 86.8878 100.551 86.8878C97.2486 86.8878 94.2567 87.7223 91.5756 89.3913C88.9123 91.0604 86.7905 93.5195 85.2102 96.7688C83.6477 100.018 82.8665 104.004 82.8665 108.727C82.8665 113.45 83.6477 117.436 85.2102 120.686C86.7905 123.935 88.9123 126.394 91.5756 128.063C94.2567 129.732 97.2486 130.567 100.551 130.567C102.362 130.567 104.102 130.318 105.771 129.821C107.44 129.324 108.958 128.587 110.326 127.61C111.711 126.616 112.882 125.4 113.841 123.962C114.818 122.506 115.501 120.837 115.892 118.955H122.497C122 121.742 121.094 124.237 119.781 126.439C118.467 128.64 116.833 130.513 114.88 132.058C112.927 133.585 110.734 134.748 108.301 135.547C105.887 136.346 103.303 136.746 100.551 136.746C95.8991 136.746 91.7621 135.609 88.1399 133.337C84.5178 131.064 81.668 127.832 79.5906 123.642C77.5131 119.452 76.4744 114.48 76.4744 108.727C76.4744 102.974 77.5131 98.0028 79.5906 93.8125C81.668 89.6222 84.5178 86.3906 88.1399 84.1179C91.7621 81.8452 95.8991 80.7088 100.551 80.7088C103.303 80.7088 105.887 81.1083 108.301 81.9073C110.734 82.7063 112.927 83.8782 114.88 85.4229C116.833 86.9499 118.467 88.8143 119.781 91.016C121.094 93.1999 122 95.6946 122.497 98.5Z" fill="#331B34"/>
</g>
<defs>
<filter id="filter0_d_29_5" x="25" y="29.7715" width="150" height="148.887" filterUnits="userSpaceOnUse" color-interpolation-filters="sRGB">
<feFlood flood-opacity="0" result="BackgroundImageFix"/>
<feColorMatrix in="SourceAlpha" type="matrix" values="0 0 0 0 0 0 0 0 0 0 0 0 0 0 0 0 0 0 127 0" result="hardAlpha"/>
<feOffset dy="4"/>
<feComposite in2="hardAlpha" operator="out"/>
<feColorMatrix type="matrix" values="0 0 0 0 0 0 0 0 0 0 0 0 0 0 0 0 0 0 0.25 0"/>
<feBlend mode="normal" in2="BackgroundImageFix" result="effect1_dropShadow_29_5"/>
<feBlend mode="normal" in="SourceGraphic" in2="effect1_dropShadow_29_5" result="shape"/>
</filter>
<filter id="filter1_i_29_5" x="76.4744" y="80.7088" width="46.0227" height="56.0369" filterUnits="userSpaceOnUse" color-interpolation-filters="sRGB">
<feFlood flood-opacity="0" result="BackgroundImageFix"/>
<feBlend mode="normal" in="SourceGraphic" in2="BackgroundImageFix" result="shape"/>
<feColorMatrix in="SourceAlpha" type="matrix" values="0 0 0 0 0 0 0 0 0 0 0 0 0 0 0 0 0 0 127 0" result="hardAlpha"/>
<feOffset dy="4"/>
<feComposite in2="hardAlpha" operator="arithmetic" k2="-1" k3="1"/>
<feColorMatrix type="matrix" values="0 0 0 0 0 0 0 0 0 0 0 0 0 0 0 0 0 0 0.25 0"/>
<feBlend mode="normal" in2="shape" result="effect1_innerShadow_29_5"/>
</filter>
</defs>
</svg>
