<svg width="200" height="200" viewBox="0 0 200 200" fill="none" xmlns="http://www.w3.org/2000/svg">
<rect width="200" height="200" rx="50" fill="url(#paint0_linear_20_15)"/>
<path d="M106.482 32.3096C106.85 28.4612 110.279 25.6071 114.076 26.3326C130.554 29.4807 145.577 38.0832 156.658 50.8582C169.273 65.4034 175.812 84.2433 174.919 103.477C174.027 122.71 165.772 140.863 151.863 154.178C137.955 167.492 119.458 174.947 100.204 175C80.9502 175.052 62.4136 167.698 48.4327 154.459C34.4519 141.221 26.0979 123.113 25.1007 103.885C24.1034 84.6563 30.5393 65.7811 43.0757 51.1674C54.0863 38.3323 69.062 29.6482 85.5227 26.4103C89.316 25.6642 92.7602 28.4996 93.1497 32.3459L94.8866 49.4997C95.4953 55.5111 104.262 55.4873 104.838 49.4726L106.482 32.3096Z" fill="url(#paint1_linear_20_15)"/>
<g filter="url(#filter0_i_20_15)">
<path d="M44.5639 107.824V103.562L78.8679 86.0909V92.9091L52.554 105.587L52.767 105.161V106.226L52.554 105.8L78.8679 118.477V125.295L44.5639 107.824ZM111.474 69.8977L93.8959 135.203H88.143L105.721 69.8977H111.474ZM155.04 107.824L120.736 125.295V118.477L147.05 105.8L146.837 106.226V105.161L147.05 105.587L120.736 92.9091V86.0909L155.04 103.562V107.824Z" fill="#331B34"/>
</g>
<defs>
<filter id="filter0_i_20_15" x="44.5639" y="69.8977" width="110.476" height="69.3054" filterUnits="userSpaceOnUse" color-interpolation-filters="sRGB">
<feFlood flood-opacity="0" result="BackgroundImageFix"/>
<feBlend mode="normal" in="SourceGraphic" in2="BackgroundImageFix" result="shape"/>
<feColorMatrix in="SourceAlpha" type="matrix" values="0 0 0 0 0 0 0 0 0 0 0 0 0 0 0 0 0 0 127 0" result="hardAlpha"/>
<feOffset dy="4"/>
<feGaussianBlur stdDeviation="2"/>
<feComposite in2="hardAlpha" operator="arithmetic" k2="-1" k3="1"/>
<feColorMatrix type="matrix" values="0 0 0 0 0 0 0 0 0 0 0 0 0 0 0 0 0 0 0.25 0"/>
<feBlend mode="normal" in2="shape" result="effect1_innerShadow_20_15"/>
</filter>
<linearGradient id="paint0_linear_20_15" x1="0" y1="0" x2="200" y2="200" gradientUnits="userSpaceOnUse">
<stop stop-color="#292626"/>
<stop offset="1" stop-color="#181717"/>
</linearGradient>
<linearGradient id="paint1_linear_20_15" x1="25" y1="25" x2="175" y2="175" gradientUnits="userSpaceOnUse">
<stop offset="0.230769" stop-color="#68286B"/>
<stop offset="1" stop-color="#2B1434"/>
</linearGradient>
</defs>
</svg>
